<svg xmlns="http://www.w3.org/2000/svg" width="24" height="24" viewBox="0 0 24 24" fill="none" stroke="#fff" stroke-width="2" stroke-linecap="round" stroke-linejoin="round" class="lucide lucide-waves h-16 w-16 text-primary mr-4" data-lov-id="src/components/HeroSection.tsx:50:14" data-lov-name="Waves" data-component-path="src/components/HeroSection.tsx" data-component-line="50" data-component-file="HeroSection.tsx" data-component-name="Waves" data-component-content="%7B%22className%22%3A%22h-16%20w-16%20text-primary%20mr-4%22%7D"><path d="M2 6c.6.5 1.2 1 2.5 1C7 7 7 5 9.5 5c2.6 0 2.4 2 5 2 2.5 0 2.5-2 5-2 1.3 0 1.9.5 2.5 1"></path><path d="M2 12c.6.5 1.2 1 2.5 1 2.5 0 2.5-2 5-2 2.6 0 2.4 2 5 2 2.5 0 2.5-2 5-2 1.3 0 1.9.5 2.5 1"></path><path d="M2 18c.6.5 1.2 1 2.5 1 2.5 0 2.5-2 5-2 2.6 0 2.4 2 5 2 2.5 0 2.5-2 5-2 1.3 0 1.9.5 2.5 1"></path></svg>